<?xml version="1.0"?>
<svg xmlns="http://www.w3.org/2000/svg" viewBox="0 0 24 24">
    <path d="M 12.5 2 L 10 4 L 10 5.9375 L 7 8.28125 C 6.4031223 8.6283124 6 9.2634554 6 10 L 6 17 C 6 17.736545 6.4031223 18.371688 7 18.71875 L 7 22 L 18 22 L 18 18.71875 C 18.596878 18.371688 19 17.736545 19 17 L 19 10 C 19 9.2634554 18.596878 8.6283124 18 8.28125 L 15 5.9375 L 15 4 L 12.5 2 z M 12.5 10 C 14.433 10 16 11.567 16 13.5 C 16 15.433 14.433 17 12.5 17 C 10.567 17 9 15.433 9 13.5 C 9 11.567 10.567 10 12.5 10 z M 12 11 L 12 13.5 L 12 13.65625 L 12.09375 13.8125 L 13.25 15.3125 L 14.03125 14.6875 L 13 13.3125 L 13 11 L 12 11 z"/>
</svg>
